<svg xmlns="http://www.w3.org/2000/svg" width="60.76" height="31.47" viewBox="0 0 60.76 31.47">
  <g id="Group_183" data-name="Group 183" transform="translate(0)">
    <path id="Path_119" data-name="Path 119" d="M109.333,410.469l-10.62-10.62a9.59,9.59,0,0,0-13.562,0h0a9.59,9.59,0,0,0,0,13.562l10.62,10.62a9.59,9.59,0,0,0,13.562,0h0a9.59,9.59,0,0,0,0-13.562Z" transform="translate(-82.342 -395.458)" fill="#5cc9f6"/>
    <path id="Path_120" data-name="Path 120" d="M424.948,453.312h0a9.59,9.59,0,0,0-13.562,0h0a9.59,9.59,0,0,0,0,13.563h0a9.59,9.59,0,0,0,13.562,0h0a9.59,9.59,0,0,0,0-13.563Z" transform="translate(-366.997 -442.107)" fill="#fa8807"/>
    <path id="Path_121" data-name="Path 121" d="M110.03,453.157l-3.965,3.965-.017-.018a9.591,9.591,0,0,1-11.857,1.213,9.615,9.615,0,0,0,1.3,1.616l4.28,4.28.043-.016,6.347,6.347,17.387-17.387h0a9.557,9.557,0,0,0-13.518,0Z" transform="translate(-92.681 -441.98)" fill="#00aeeb"/>
    <path id="Path_122" data-name="Path 122" d="M183.542,400.033h0l-.009-.009a9.424,9.424,0,0,0-13.513-.032L152.642,417.37h0a9.59,9.59,0,0,1-12.913.588l6.164,6.164.007-.006a9.578,9.578,0,0,0,13.545,0l16.925-16.925.028.008c.131-.148.265-.294.407-.436h0a9.583,9.583,0,0,1,9.2-2.5,9.542,9.542,0,0,0-2.463-4.23Z" transform="translate(-132.413 -395.557)" fill="#0080ca"/>
    <path id="Path_123" data-name="Path 123" d="M320.331,450.828a9.583,9.583,0,0,0-9.2,2.5c-.142.142-.276.288-.407.436l-.027-.008-16.925,16.925c-.031.031-.063.059-.093.089l.011.012h0a9.59,9.59,0,0,0,13.562,0l10.62-10.62a9.578,9.578,0,0,0,2.459-9.334Z" transform="translate(-266.745 -442.121)" fill="#ee5913"/>
    <circle id="Ellipse_4" data-name="Ellipse 4" cx="1.528" cy="1.528" r="1.528" transform="translate(23.495 4.482)" fill="#5cc9f6"/>
    <circle id="Ellipse_5" data-name="Ellipse 5" cx="0.98" cy="0.98" r="0.98" transform="translate(20.67 2.607)" fill="#5cc9f6"/>
    <circle id="Ellipse_6" data-name="Ellipse 6" cx="0.98" cy="0.98" r="0.98" transform="translate(22.834 0)" fill="#5cc9f6"/>
  </g>
</svg>
